<svg version="1.1"  xmlns="http://www.w3.org/2000/svg" xmlns:xlink="http://www.w3.org/1999/xlink" x="0px" y="0px" viewBox="0 0 635.4 260" style="enable-background:new 0 0 635.4 260;" xml:space="preserve">
<style type="text/css">
	.st0{fill:#221f25;}
	.st1{fill:none;}
	.st2{fill:url(#XMLID_00000103943242533768080860000009982045822255270028_);}
	.st3{fill:url(#XMLID_00000021805849372008699470000017374836095629716904_);}
	.st4{opacity:0.9;fill:url(#XMLID_00000121261595830957080610000001276696330641001150_);}
</style>
<path id="XMLID_00000116946919572848897640000016042896005267775910_" class="st0" d="M118.9,256c-15-3.2-30.1-9.8-44.8-19.5
	c-15.8-10.4-29.5-24.6-39.6-40.9C-7.5,127.8,5.1,51.4,5.6,48.2L6.3,44l3.6-2.1C57.2,14.5,116.8,4.2,119.3,3.8l1.5-0.3l1.5,0.3
	c2.5,0.4,62,10.7,109.3,38.1l3.6,2.1l0.7,4.1c0.6,3.2,13.1,79.6-28.8,147.4c-10.1,16.4-23.8,30.5-39.6,40.9
	c-14.8,9.7-29.8,16.3-44.8,19.5l-1.9,0.4L118.9,256z"/>
<polygon id="XMLID_00000142172414378958815980000001632478921995319426_" class="st1" points="320.6,211.1 334.9,211.2 328,178 "/>
<path id="XMLID_00000113333491097344435650000015820838464406181010_" class="st0" d="M313,150.5l-24.1,92l24.7,0.1l3.1-13.8
	l22.1,0.1l2.8,13.8l25.3,0.1l-23.2-92.3L313,150.5z M320.6,211.1L328,178l6.9,33.2L320.6,211.1z"/>
<path id="XMLID_00000137105190971504875720000017172609963448763540_" class="st0" d="M633.2,170.7c-8.5,0-13.9,4.5-15.6,11.7
	l0.1-11.1l-24-0.1l-0.3,71.6l24.4,0.1l0.2-41.3c0-6.3,3.2-9.7,9.1-9.7l8.2,0l0.1-21.2L633.2,170.7z"/>
<path id="XMLID_00000061456451726005110070000014811584255240164250_" class="st0" d="M396.8,182.4l0.1-11.1l-24-0.1l-0.3,71.6
	l24.4,0.1l0.2-41.3c0-6.3,3.2-9.7,9.1-9.7l8.2,0l0.1-21.2l-2.2,0C403.9,170.6,398.4,175.2,396.8,182.4z"/>
<path id="XMLID_00000011718304966522038130000013045189118970342834_" class="st0" d="M494.8,171.2l-2.6,0c-7.2,0-12.6,3.5-14.3,9
	c-2.6-5.6-8-9.1-17.5-9.1l-2.6,0c-7.5,0-11.8,3.4-13.1,9.1l0-9.2l-24-0.1l-0.3,71.6l24.4,0.1l0.2-49.4c0-3,1.3-4.3,3.9-4.3l2.4,0
	c2.4,0,3.6,1,3.6,3.2l-0.2,50.5l24.4,0.1l0.2-49.4c0-3,1.3-4.3,3.9-4.3l2.4,0c2.4,0,3.6,1,3.6,3.2l-0.2,50.5l24.4,0.1l0.3-53.8
	C513.9,178.4,508.5,171.3,494.8,171.2z"/>
<path id="XMLID_00000160899386289990334640000014800819394290356382_" class="st0" d="M562.6,171.3l-18.2-0.1
	c-15.4-0.1-20.4,6.9-20.5,17.7l-0.2,36c-0.1,10.8,4.9,17.8,20.3,17.9l18.2,0.1c15.4,0.1,20.4-6.9,20.5-17.7l0.2-36
	C582.9,178.4,577.9,171.4,562.6,171.3z M558.8,222.8c0,2.2-1.2,3.2-3.6,3.1l-3.9,0c-2.4,0-3.6-1-3.6-3.2l0.1-31.4
	c0-2.2,1.2-3.2,3.6-3.1l3.9,0c2.4,0,3.6,1,3.6,3.2L558.8,222.8z"/>
<path id="XMLID_00000166660274794176550220000015160296756543131310_" class="st0" d="M367.9,42l24.4,0.1l-0.3,71.6l-24.4-0.1
	L367.9,42z M350.2,0.3v5.2h5.2V0.3H350.2z M359.3,39.6L359.2,66c-0.1,10.8-5.8,17.8-21.2,17.7l-17.5-0.1l-0.1,30.1l-25.1-0.1
	l0.4-92.1l42.6,0.2C353.7,21.8,359.4,28.8,359.3,39.6z M334.2,42.8c0-2.2-1.1-3.2-3.6-3.2l-9.9,0l-0.1,26.1l9.9,0
	c2.4,0,3.6-1,3.6-3.1L334.2,42.8z M355.4,14.9h9.5V5.4h-9.5V14.9z M526.1,60L526,84.4l-36.6-0.2l0,9.5c0,2.2,1.1,3.2,3.6,3.2l6.3,0
	c2.4,0,3.6-1.3,3.6-3.4l0-4l23.1,0.1l0,6.5c-0.1,10.8-5.8,17.8-21.2,17.7l-17.5-0.1c-15.4-0.1-21.1-7.1-21-17.9l0.2-36
	C466.5,49,472.3,42,487.6,42l17.5,0.1C520.5,42.2,526.2,49.3,526.1,60z M503,62.1c0-2.2-1.1-3.2-3.6-3.2l-6.3,0
	c-2.4,0-3.6,1-3.6,3.1l0,9l13.5,0.1L503,62.1z M367.6,17.6l25.3,0.1L392.8,35l-25.3-0.1L367.6,17.6z M370.2,29.8h9.5v-9.5h-9.5V29.8
	z M535.7,17.6l-0.5,96l24.4,0.1l0.5-96L535.7,17.6z M460.2,42.1L435.9,42l-6.3,19.9l-6.1-20l-25.5-0.1l17.1,35.1l-16.5,36.5
	l23.8,0.1l7.1-21.2l7.6,21.3l24.7,0.1l-17.6-37.1L460.2,42.1z"/>
<g id="XMLID_00000171706930375416728800000010735621936858822824_">
	<g id="XMLID_00000181045655362837359160000002649154601778290606_">
		
			<linearGradient id="XMLID_00000040548698530684174170000010842688221442708359_" gradientUnits="userSpaceOnUse" x1="9.0268" y1="59.5328" x2="210.4403" y2="171.5029">
			<stop  offset="0" style="stop-color:#4F29B7"/>
			<stop  offset="1" style="stop-color:#772CFF"/>
		</linearGradient>
		
			<path id="XMLID_00000042702294970090986010000009675532613094458270_" style="fill:url(#XMLID_00000040548698530684174170000010842688221442708359_);" d="
			M120.8,12.7c0,0-59.9,10.1-106.3,37c0,0-13,75.5,27.6,141.2c9.4,15.2,22,28.3,36.9,38.1c11,7.2,25.4,14.7,41.8,18.2
			c16.4-3.5,30.8-10.9,41.8-18.2c14.9-9.8,27.5-22.9,36.9-38.1c40.6-65.7,27.6-141.2,27.6-141.2C180.7,22.8,120.8,12.7,120.8,12.7z"
			/>
		
			<linearGradient id="XMLID_00000154392634346960370730000004936662264121154737_" gradientUnits="userSpaceOnUse" x1="-2.9729" y1="52.8425" x2="221.2782" y2="177.5086">
			<stop  offset="0" style="stop-color:#4F29B7"/>
			<stop  offset="1" style="stop-color:#772CFF"/>
		</linearGradient>
		
			<path id="XMLID_00000171000358581805328480000015432832150934056123_" style="fill:url(#XMLID_00000154392634346960370730000004936662264121154737_);" d="
			M239.4,47.6l-1-5.8l-5.1-2.9c-47.8-27.7-108-38.1-110.5-38.5L120.8,0l-2.1,0.4C116.2,0.8,56,11.2,8.2,38.9l-5.1,2.9l-1,5.8
			C2,48.6-2,72.7,1.4,105.7c3.4,32.5,13,62.5,28.1,88.2c11.1,19,26.5,35.2,45,47c11.8,7.5,26.8,14.9,43.7,18.5l2.6,0.6l2.6-0.6
			c16.9-3.6,31.9-11,43.7-18.5c18.6-11.8,33.9-28,45-47c15-25.7,24.7-55.8,28.1-88.2C243.6,72.7,239.6,48.6,239.4,47.6z M234,105
			c-2.9,28.3-10.7,54.7-22.8,77.8C197,210,174.6,232.2,146.7,245c-7.5,3.5-15.8,6.4-24.6,8.3l-1.3,0.3l-1.3-0.3
			c-8.8-1.9-17.1-4.9-24.6-8.3C67,232.2,44.6,210,30.4,182.8C18.3,159.7,10.5,133.3,7.6,105C4.3,72.9,8.2,49.6,8.3,48.7l0.5-2.9
			l2.5-1.5C58.2,17.1,117.2,6.9,119.7,6.5l1-0.2l1,0.2c2.5,0.4,61.5,10.6,108.4,37.8l2.5,1.5l0.5,2.9C233.4,49.6,237.3,72.9,234,105
			z"/>
	</g>
	<g id="XMLID_00000019668162348892723370000007245595818329748906_">
		<g id="XMLID_00000037657280691294221180000012363548536729925562_">
			<path id="XMLID_00000068643121976273081320000009507565171821067965_" class="st0" d="M134.2,158.3l-4.9,0v28.9H161v-37.4
				c-6.1,5.5-15,8.5-26.5,8.5C134.4,158.3,134.3,158.3,134.2,158.3z"/>
			<path id="XMLID_00000085953953029973398510000003140079338128966829_" class="st0" d="M161,126.9l0.2-33.4
				c0.1-13.6-7.1-22.5-26.5-22.6l-54-0.3v22.8l44.3,0.1c3.1,0,4.5,1.3,4.5,4l-0.1,25c0,2.7-1.5,4-4.5,4l-10.7,0
				c-1,0-1.8-0.8-1.8-1.8l0.1-20.3c0-1-0.8-1.8-1.8-1.8H80.6V187l31.5,0.2v-38.1l22.2,0.1C153.6,149.3,160.9,140.5,161,126.9z
				 M92.7,82.8h-9.1v-9.1h9.1V82.8z"/>
		</g>
		<rect id="XMLID_00000020400247849287251480000009214737275029183884_" x="68.5" y="58.5" class="st0" width="9.1" height="9.1"/>
		<rect id="XMLID_00000078006660788573970820000016968768448740890803_" x="63.5" y="53.5" class="st0" width="5" height="5"/>
	</g>
	
		<linearGradient id="XMLID_00000033361236764966921200000007320813706777798302_" gradientUnits="userSpaceOnUse" x1="142.5305" y1="14.6718" x2="39.426" y2="166.4324">
		<stop  offset="0" style="stop-color:#FFFFFF;stop-opacity:0"/>
		<stop  offset="0.5387" style="stop-color:#FFFFFF;stop-opacity:0.4"/>
		<stop  offset="1" style="stop-color:#FFFFFF;stop-opacity:0"/>
	</linearGradient>
	
		<path id="XMLID_00000121260916621550265500000005633569802836869277_" style="opacity:0.9;fill:url(#XMLID_00000033361236764966921200000007320813706777798302_);" d="
		M227.2,50.4c-0.1-0.4-0.1-0.7-0.1-0.7c-46.4-26.9-106.3-37-106.3-37s-59.9,10.1-106.3,37c0,0-12.3,71.6,24.6,136
		C71.6,111.4,142.8,57.9,227.2,50.4z M7.6,105C4.3,72.9,8.2,49.6,8.3,48.7l0.5-2.9l2.5-1.5C58.2,17.1,117.2,6.9,119.7,6.5l1-0.2
		l1,0.2c2.5,0.4,61.5,10.6,108.4,37.8l2.5,1.5l0.5,2.9c0,0.1,0.1,0.6,0.2,1.3c2.1-0.1,4.2-0.2,6.3-0.3c-0.2-1.2-0.3-1.9-0.3-2
		l-1-5.8l-5.1-2.9c-47.8-27.7-108-38.1-110.5-38.5L120.8,0l-2.1,0.4C116.2,0.8,56,11.2,8.2,38.9l-5.1,2.9l-1,5.8
		C2,48.6-2,72.7,1.4,105.7C5,141,16,173.3,33.3,200.3c0.9-2.5,1.8-4.9,2.8-7.4C20.7,167.5,11,137.6,7.6,105z"/>
</g>
</svg>
